<svg xmlns="http://www.w3.org/2000/svg" xmlns:xlink="http://www.w3.org/1999/xlink" width="810" zoomAndPan="magnify" viewBox="0 0 810 809.999993" height="809.999993" preserveAspectRatio="xMidYMid meet" version="1.0"><defs><clipPath id="id1"><path d="M 109.277344 26 L 700.355469 26 L 700.355469 810 L 109.277344 810 Z M 109.277344 26 " clip-rule="nonzero"/></clipPath></defs><g clip-path="url(#id1)"><path fill="rgb(100%, 100%, 100%)" d="M 686.054688 542.441406 L 678.136719 544.472656 C 680.585938 574.992188 691.035156 729.953125 654.199219 768.410156 C 637.179688 786.175781 613.8125 787.882812 605.894531 787.914062 L 606.300781 810 L 194.214844 810 L 195.878906 775.265625 C 100.066406 747.039062 130.03125 566.894531 134.871094 540.992188 L 125.144531 537.835938 C 112.945312 533.871094 106.359375 520.675781 110.53125 508.535156 C 110.53125 508.535156 120.109375 426.648438 149.9375 368.789062 C 163.605469 342.257812 192.277344 322.230469 218.617188 308.210938 C 253.253906 289.769531 329.929688 267.800781 360.796875 259.335938 C 364.136719 234.414062 362.207031 207.339844 362.207031 207.339844 C 354.871094 199.800781 350.945312 186.648438 349.171875 171.203125 C 341.703125 175.191406 327.980469 162.453125 329.660156 141.964844 C 330.449219 132.316406 334.976562 129.300781 339.828125 128.949219 C 342.3125 128.765625 345.578125 128.359375 348.605469 127.933594 C 350.738281 92.609375 357.496094 59.851562 357.496094 59.851562 C 364.558594 39.460938 385.730469 26.121094 420.226562 26.121094 C 454.730469 26.121094 511.96875 38.675781 504.917969 124.972656 C 504.433594 130.875 503.882812 136.476562 503.273438 141.796875 L 513.1875 153.644531 C 518.699219 155.433594 523.613281 160.609375 521.242188 174.171875 C 517.707031 194.375 500.570312 200.003906 494.019531 193.257812 C 485.769531 224.246094 476.683594 234.015625 476.683594 234.015625 C 473.113281 247.03125 472.542969 256.601562 473.636719 264.191406 C 500.382812 271.542969 558.191406 288.476562 599.296875 308.027344 C 629.105469 322.203125 662.023438 351.488281 675.886719 381.445312 C 698.476562 430.269531 699.90625 519.859375 699.90625 519.859375 C 702.132812 529.894531 696 539.886719 686.054688 542.441406 " fill-opacity="1" fill-rule="nonzero"/></g><path fill="rgb(0.779724%, 51.368713%, 100%)" d="M 441.835938 490.996094 C 441.703125 490.996094 441.566406 490.984375 441.433594 490.964844 C 439.777344 490.746094 438.625 489.234375 438.84375 487.585938 C 439.332031 483.921875 436.152344 482.175781 435.070312 481.695312 C 429.386719 481.386719 376.597656 478.519531 364.625 477.878906 C 361.195312 477.691406 358.613281 478.371094 357.152344 479.820312 C 355.566406 481.394531 355.597656 483.519531 355.597656 483.542969 C 355.679688 485.207031 354.394531 486.617188 352.730469 486.699219 C 350.984375 486.738281 349.652344 485.488281 349.578125 483.828125 C 349.554688 483.34375 349.453125 478.976562 352.902344 475.546875 C 355.640625 472.816406 359.699219 471.589844 364.945312 471.859375 C 377.597656 472.535156 435.890625 475.703125 435.890625 475.703125 C 436.179688 475.714844 436.460938 475.777344 436.738281 475.871094 C 439.953125 477.015625 445.785156 481.097656 444.820312 488.375 C 444.613281 489.894531 443.320312 490.996094 441.835938 490.996094 Z M 364.675781 488.808594 C 361.679688 488.808594 359.253906 487.140625 359.253906 485.082031 C 359.253906 483.019531 361.679688 481.347656 364.675781 481.347656 C 367.667969 481.347656 370.09375 483.019531 370.09375 485.082031 C 370.09375 487.140625 367.667969 488.808594 364.675781 488.808594 Z M 434.914062 474.054688 L 360.820312 470.585938 C 354.601562 470.289062 349.382812 475.234375 349.339844 481.460938 L 348.976562 529.921875 C 367.804688 530.804688 386.363281 532.210938 386.363281 532.210938 C 386.363281 532.210938 390.425781 520.339844 408.730469 523.050781 C 416.058594 524.136719 429.464844 524.570312 443.433594 524.699219 L 445.359375 485.558594 C 445.652344 479.492188 440.976562 474.335938 434.914062 474.054688 " fill-opacity="1" fill-rule="nonzero"/><path fill="rgb(19.219971%, 18.03894%, 37.249756%)" d="M 456.398438 145.578125 C 453.902344 148.074219 453.902344 152.121094 456.398438 154.625 C 458.894531 157.113281 462.945312 157.113281 465.441406 154.625 C 467.9375 152.121094 467.9375 148.074219 465.441406 145.578125 C 462.945312 143.082031 458.894531 143.082031 456.398438 145.578125 Z M 395.964844 140.160156 C 393.46875 142.648438 393.46875 146.699219 395.964844 149.199219 C 398.460938 151.695312 402.507812 151.695312 405.003906 149.199219 C 407.5 146.699219 407.5 142.648438 405.003906 140.160156 C 402.507812 137.65625 398.460938 137.65625 395.964844 140.160156 Z M 364.339844 98.902344 C 368.144531 108.8125 365.101562 122.789062 361.710938 133.125 L 372.132812 137.835938 C 377.128906 129.769531 386.03125 124.371094 396.195312 124.371094 C 408.433594 124.371094 418.847656 132.191406 422.792969 143.09375 C 426.898438 142.164062 433.03125 141.476562 438.421875 143.664062 C 438.585938 143.039062 438.757812 142.402344 438.914062 141.769531 C 439.359375 140.039062 439.652344 138.289062 440.054688 136.550781 C 440.25 135.6875 440.511719 134.828125 440.792969 133.972656 L 441.277344 132.707031 C 441.441406 132.285156 441.796875 131.902344 442.957031 131.675781 C 443.949219 132.324219 444.136719 132.804688 444.136719 133.253906 L 444.121094 134.601562 C 444.085938 135.492188 444.023438 136.375 443.902344 137.246094 C 443.742188 138.496094 443.550781 139.730469 443.394531 140.980469 C 448.5625 135.496094 455.867188 132.054688 463.96875 132.054688 C 476.050781 132.054688 486.355469 139.675781 490.414062 150.351562 L 499.574219 148.132812 C 489.40625 111.734375 434.675781 101.429688 392.804688 92.804688 C 378.0625 89.761719 370.199219 81.796875 366.308594 72.375 C 363.203125 80.039062 360.910156 89.988281 364.339844 98.902344 Z M 486.257812 160.382812 C 486.257812 158.957031 486.113281 157.558594 485.855469 156.203125 C 485.453125 155.816406 485.128906 155.34375 484.992188 154.769531 C 484.859375 154.222656 484.894531 153.683594 485.046875 153.1875 C 482.042969 144.410156 473.742188 138.082031 463.96875 138.082031 C 455.816406 138.082031 448.6875 142.5 444.800781 149.058594 C 444.957031 150.007812 444.648438 151.015625 443.898438 151.726562 C 443.703125 151.90625 443.488281 152.050781 443.265625 152.171875 C 442.253906 154.71875 441.675781 157.484375 441.675781 160.382812 C 441.675781 172.683594 451.679688 182.683594 463.96875 182.683594 C 476.261719 182.683594 486.257812 172.683594 486.257812 160.382812 Z M 418.484375 152.699219 C 418.484375 151.832031 418.421875 150.972656 418.320312 150.132812 C 417.488281 149.863281 416.773438 149.246094 416.433594 148.375 C 415.976562 147.214844 416.289062 145.941406 417.132812 145.121094 C 414.019531 136.550781 405.820312 130.398438 396.195312 130.398438 C 383.898438 130.398438 373.898438 140.402344 373.898438 152.699219 C 373.898438 165 383.898438 175 396.195312 175 C 408.484375 175 418.484375 165 418.484375 152.699219 Z M 339.671875 128.96875 C 336.046875 93.324219 334.851562 34.667969 365.800781 32.640625 C 367.535156 27.753906 371.191406 23.777344 375.96875 21.582031 C 423.113281 -0.046875 476.59375 4.238281 501.023438 22.957031 C 504.421875 25.558594 488.070312 30.261719 491.078125 33.355469 C 501.21875 43.757812 510.207031 48.339844 516.328125 60.546875 C 524.058594 68.445312 530.386719 80.699219 528.585938 99.359375 C 526.503906 120.902344 520.320312 139.507812 513.824219 153.878906 C 511.425781 152.96875 508.859375 152.761719 506.703125 152.816406 C 503.550781 157.421875 501.25 159.929688 501.25 159.929688 C 501.21875 157.898438 501.027344 155.949219 500.765625 154.046875 L 491.9375 156.179688 C 492.144531 157.558594 492.28125 158.953125 492.28125 160.382812 C 492.28125 176.007812 479.585938 188.710938 463.96875 188.710938 C 453.144531 188.710938 443.726562 182.601562 438.960938 173.644531 C 438.9375 173.675781 438.917969 173.6875 438.894531 173.71875 C 438.265625 173.820312 437.796875 173.707031 437.464844 173.503906 C 437.183594 173.324219 437.011719 173.089844 436.925781 172.828125 C 436.722656 172.332031 436.554688 171.847656 436.417969 171.367188 C 436.152344 170.414062 435.960938 169.464844 435.859375 168.539062 C 435.621094 166.660156 435.640625 164.828125 435.644531 163.003906 C 435.660156 162.371094 435.671875 161.730469 435.691406 161.089844 C 435.683594 160.851562 435.652344 160.621094 435.652344 160.382812 C 435.652344 159.203125 435.753906 158.042969 435.890625 156.902344 C 436.007812 155.332031 436.179688 153.769531 436.472656 152.234375 C 436.625 151.363281 436.792969 150.496094 436.976562 149.628906 C 432.957031 147.578125 427.746094 148.167969 424.226562 148.960938 C 424.390625 150.183594 424.511719 151.429688 424.511719 152.699219 C 424.511719 168.316406 411.808594 181.027344 396.195312 181.027344 C 380.578125 181.027344 367.875 168.316406 367.875 152.699219 C 367.875 149.390625 368.476562 146.222656 369.523438 143.269531 L 359.6875 138.828125 C 358.65625 141.511719 357.722656 143.703125 357.082031 145.140625 C 356.726562 140.941406 355.414062 136.808594 352.8125 132.46875 C 352.8125 132.46875 345.949219 128.441406 339.671875 128.96875 Z M 417.003906 178.417969 C 417.839844 179.289062 418.863281 179.917969 419.851562 180.601562 C 421.859375 181.929688 424.214844 182.910156 426.605469 183.117188 C 429.023438 183.464844 431.308594 182.738281 433.453125 182.09375 C 434.484375 181.671875 435.546875 181.320312 436.511719 180.78125 C 436.980469 180.492188 437.4375 180.160156 437.882812 179.828125 L 438.535156 179.300781 C 438.769531 179.15625 438.90625 178.78125 438.667969 177.5625 C 437.945312 176.523438 437.609375 176.335938 437.359375 176.371094 L 436.574219 176.390625 C 436.066406 176.421875 435.558594 176.453125 435.074219 176.527344 C 434.097656 176.609375 433.167969 176.78125 432.242188 176.929688 C 430.378906 177.0625 428.578125 177.054688 426.898438 177.113281 C 425.210938 177.132812 423.46875 177.226562 421.820312 176.699219 C 421 176.441406 420.265625 175.976562 419.582031 175.476562 C 419.230469 175.230469 418.855469 174.992188 418.484375 174.753906 C 418.289062 174.640625 418.078125 174.527344 417.894531 174.402344 C 417.695312 174.269531 417.371094 174.300781 416.296875 174.628906 C 415.488281 175.386719 415.4375 175.851562 415.550781 176.121094 C 415.664062 176.414062 415.789062 176.699219 415.925781 176.96875 C 416.222656 177.5 416.574219 177.996094 417.003906 178.417969 Z M 447.289062 129.261719 L 448.25 129.226562 C 448.871094 129.144531 449.515625 129.167969 450.125 129.082031 C 451.347656 128.890625 452.605469 128.816406 453.855469 128.824219 C 456.386719 128.988281 458.871094 129.488281 461.359375 129.851562 C 463.835938 130.324219 466.382812 130.433594 468.933594 130.800781 C 470.210938 130.960938 471.472656 131.21875 472.769531 131.371094 C 473.417969 131.445312 474.074219 131.496094 474.738281 131.539062 L 475.734375 131.597656 C 476.0625 131.644531 476.445312 131.488281 477.183594 130.433594 C 477.304688 129.15625 477.058594 128.773438 476.75 128.609375 L 475.863281 128.046875 C 475.253906 127.6875 474.644531 127.34375 474.011719 127.0625 C 472.757812 126.464844 471.441406 126.058594 470.128906 125.625 C 467.496094 124.800781 464.800781 123.992188 462 123.875 C 459.195312 123.703125 456.355469 124.019531 453.570312 124.46875 C 452.179688 124.769531 450.78125 124.839844 449.402344 125.234375 C 448.710938 125.417969 448.035156 125.605469 447.390625 125.949219 L 446.4375 126.476562 C 446.125 126.652344 445.859375 127.015625 445.902344 128.144531 C 446.585938 129.085938 446.964844 129.273438 447.289062 129.261719 Z M 412.421875 196.199219 C 410.859375 195.804688 409.375 195.148438 407.851562 194.625 C 406.351562 194.035156 404.890625 193.335938 403.414062 192.699219 L 403.324219 192.664062 C 403.066406 192.554688 402.792969 192.480469 402.503906 192.457031 C 401.015625 192.332031 399.714844 193.433594 399.582031 194.921875 C 399.445312 196.570312 399.519531 197.8125 399.695312 199.238281 C 399.875 200.617188 400.195312 201.976562 400.648438 203.3125 C 401.523438 206 403.109375 208.507812 405.167969 210.496094 C 407.21875 212.503906 409.707031 213.933594 412.242188 214.914062 C 414.8125 215.855469 417.394531 216.347656 420.015625 216.59375 C 425.230469 217.132812 430.929688 216.011719 435.339844 212.875 C 437.566406 211.355469 439.363281 209.328125 440.78125 207.152344 C 441.476562 206.050781 442.074219 204.890625 442.550781 203.695312 C 443.03125 202.523438 443.570312 201.269531 442.554688 199.652344 C 440.832031 200.351562 440.417969 201.320312 439.816406 202.316406 C 439.199219 203.277344 438.550781 204.203125 437.847656 205.070312 C 436.46875 206.828125 434.863281 208.359375 433.070312 209.542969 C 429.476562 211.972656 424.972656 212.527344 420.660156 211.675781 C 416.277344 210.835938 412.183594 209.042969 409.449219 206.195312 C 408.078125 204.761719 407.003906 203.101562 406.203125 201.246094 C 405.953125 200.636719 405.75 200.003906 405.570312 199.363281 C 405.726562 199.417969 405.875 199.480469 406.03125 199.539062 C 407.707031 200.046875 409.335938 200.6875 411.050781 201.070312 C 414.414062 202.035156 417.902344 202.523438 421.382812 202.832031 C 424.875 203.101562 428.386719 202.996094 431.847656 202.53125 C 433.578125 202.3125 435.292969 201.945312 436.980469 201.53125 C 438.667969 201.136719 440.398438 200.496094 441.535156 198.632812 C 439.515625 197.949219 437.972656 198.109375 436.359375 198.394531 C 434.753906 198.597656 433.136719 198.753906 431.519531 198.777344 C 428.285156 198.886719 425.050781 198.714844 421.851562 198.300781 C 420.257812 198.019531 418.660156 197.832031 417.097656 197.410156 L 414.742188 196.882812 Z M 386.734375 123.773438 L 387.644531 123.480469 C 388.195312 123.214844 388.847656 123.152344 389.410156 122.933594 C 389.980469 122.726562 390.546875 122.5 391.167969 122.417969 C 391.773438 122.3125 392.359375 122.144531 392.992188 122.128906 C 395.488281 121.992188 397.984375 122.53125 400.460938 122.9375 C 402.929688 123.441406 405.5 123.765625 408.066406 124.375 C 409.351562 124.664062 410.609375 125.058594 411.914062 125.359375 C 412.574219 125.503906 413.226562 125.65625 413.902344 125.78125 L 414.910156 125.960938 C 415.238281 126.0625 415.644531 125.949219 416.523438 125.007812 C 416.796875 123.75 416.585938 123.339844 416.289062 123.128906 L 415.433594 122.4375 C 414.84375 122.011719 414.253906 121.570312 413.625 121.214844 C 412.382812 120.46875 411.054688 119.898438 409.71875 119.332031 C 407.046875 118.242188 404.265625 117.167969 401.261719 116.984375 C 398.285156 116.730469 395.210938 117.011719 392.265625 117.828125 C 391.523438 117.984375 390.796875 118.285156 390.0625 118.480469 C 389.328125 118.660156 388.613281 118.949219 387.925781 119.308594 C 387.242188 119.664062 386.539062 119.972656 385.976562 120.535156 L 385.136719 121.339844 C 384.859375 121.609375 384.691406 122.046875 385.058594 123.109375 C 386.007812 123.796875 386.421875 123.875 386.734375 123.773438 Z M 336.675781 291.253906 L 338.15625 290.578125 C 339.125 290.105469 340.105469 289.628906 341.058594 289.117188 C 342.886719 287.96875 344.664062 286.707031 346.417969 285.421875 C 349.792969 282.671875 353.265625 279.855469 355.761719 276.125 C 358.363281 272.515625 360.324219 268.414062 361.585938 264.128906 C 362.210938 261.992188 362.820312 259.839844 363.089844 257.613281 C 363.257812 256.507812 363.246094 255.367188 363.191406 254.242188 C 363.128906 253.671875 363.082031 253.113281 362.972656 252.550781 C 362.878906 252 362.558594 251.394531 361.398438 251.027344 C 360.386719 251.691406 360.128906 252.136719 360.0625 252.636719 C 360.019531 253.121094 359.886719 253.609375 359.8125 254.09375 C 359.621094 255.058594 359.453125 256.027344 359.226562 256.984375 C 358.875 258.910156 358.25 260.800781 357.492188 262.617188 C 355.84375 266.226562 353.445312 269.410156 350.984375 272.480469 L 349.097656 274.769531 C 348.417969 275.496094 347.753906 276.230469 347.113281 276.996094 C 345.867188 278.558594 344.347656 279.90625 342.96875 281.378906 C 341.484375 282.761719 339.910156 284.046875 338.429688 285.476562 C 337.640625 286.128906 336.875 286.820312 336.105469 287.523438 L 334.96875 288.601562 C 334.566406 288.941406 334.292969 289.460938 334.511719 290.800781 C 335.609375 291.566406 336.203125 291.5 336.675781 291.253906 Z M 476.261719 240.683594 L 476.1875 238.699219 C 476.195312 238.046875 475.980469 237.363281 474.8125 236.554688 C 473.515625 237.0625 473.179688 237.695312 473.058594 238.355469 L 472.605469 240.3125 C 472.320312 241.621094 472.042969 242.941406 471.816406 244.257812 C 471.273438 246.890625 471.246094 249.597656 470.964844 252.269531 C 470.542969 257.625 470.433594 263.09375 471.234375 268.527344 C 472.125 273.949219 473.636719 279.367188 476.402344 284.324219 C 477.160156 285.539062 477.734375 286.824219 478.683594 287.9375 C 479.117188 288.511719 479.535156 289.089844 479.980469 289.65625 L 481.523438 291.210938 C 482.609375 292.1875 483.835938 293.046875 485.199219 293.664062 C 485.847656 294.007812 486.613281 294.171875 487.308594 294.402344 C 488.023438 294.566406 488.921875 294.535156 489.722656 293.519531 C 489.453125 292.953125 489.253906 292.515625 489.027344 292.265625 C 488.808594 291.949219 488.570312 291.789062 488.308594 291.675781 C 487.816406 291.34375 487.304688 291.109375 486.851562 290.707031 C 485.914062 290.042969 485.058594 289.226562 484.246094 288.394531 C 482.5625 286.75 481.339844 284.597656 480.3125 282.390625 C 478.40625 277.835938 477.800781 272.769531 477.191406 267.773438 C 477.058594 265.226562 476.683594 262.726562 476.609375 260.148438 C 476.480469 257.582031 476.1875 255.015625 476.269531 252.417969 C 476.300781 249.828125 476.179688 247.230469 476.28125 244.613281 C 476.304688 243.308594 476.289062 242 476.261719 240.683594 Z M 329.082031 298.378906 C 330.726562 303.378906 332.738281 308.253906 335.027344 313.003906 C 339.640625 322.476562 345.363281 331.5 352.558594 339.375 C 356.117188 343.332031 360.035156 347.019531 364.394531 350.167969 C 368.734375 353.320312 373.371094 356.167969 378.402344 358.191406 C 383.398438 360.242188 388.632812 361.832031 394 362.570312 C 396.664062 363.097656 399.367188 363.167969 402.0625 363.394531 C 403.417969 363.5 404.765625 363.40625 406.113281 363.417969 C 407.457031 363.375 408.816406 363.460938 410.152344 363.3125 C 415.542969 362.867188 420.796875 362.121094 425.996094 360.902344 C 431.21875 359.816406 436.328125 358.175781 441.3125 356.261719 C 446.28125 354.273438 451.09375 351.90625 455.714844 349.203125 C 460.285156 346.417969 464.652344 343.300781 468.734375 339.84375 C 476.847656 332.882812 483.773438 324.582031 489.136719 315.410156 C 491.851562 310.84375 494.121094 306.039062 496.039062 301.109375 C 496.992188 298.644531 497.851562 296.140625 498.613281 293.605469 C 499.390625 291.089844 499.886719 288.425781 499.21875 285.609375 C 497.460938 287.875 496.484375 290.199219 495.628906 292.617188 C 494.742188 295.011719 493.769531 297.375 492.703125 299.699219 C 490.570312 304.339844 488.050781 308.789062 485.335938 313.085938 C 479.824219 321.621094 473.140625 329.375 465.328125 335.773438 C 449.726562 348.703125 429.738281 355.46875 409.730469 357.316406 C 408.492188 357.488281 407.242188 357.425781 405.996094 357.496094 C 404.746094 357.507812 403.492188 357.632812 402.253906 357.558594 C 399.769531 357.394531 397.261719 357.402344 394.816406 356.964844 C 389.863281 356.398438 385.046875 355.039062 380.402344 353.261719 C 375.722656 351.542969 371.355469 349.046875 367.210938 346.230469 C 363.050781 343.421875 359.253906 340.058594 355.753906 336.402344 C 348.730469 329.074219 343.144531 320.398438 338.511719 311.277344 C 336.191406 306.710938 334.128906 302.007812 332.210938 297.246094 C 331.246094 294.859375 330.386719 292.433594 329.558594 290 C 328.738281 287.558594 327.789062 285.183594 326.152344 282.890625 C 325.660156 285.675781 326.085938 288.320312 326.78125 290.847656 C 327.488281 293.375 328.234375 295.894531 329.082031 298.378906 Z M 383.945312 235.652344 C 382.414062 234.121094 380.929688 232.550781 379.421875 230.984375 L 377.183594 228.621094 C 376.445312 227.816406 375.578125 227.144531 374.050781 226.886719 C 373.804688 228.429688 374.277344 229.503906 374.902344 230.425781 C 375.535156 231.347656 376.175781 232.269531 376.839844 233.167969 C 378.175781 234.96875 379.628906 236.671875 381.128906 238.335938 C 384.167969 241.628906 387.4375 244.726562 390.921875 247.613281 C 394.378906 250.535156 398.121094 253.191406 402.234375 255.367188 C 404.289062 256.441406 406.460938 257.355469 408.703125 258.132812 C 410.972656 258.824219 413.320312 259.363281 415.734375 259.625 C 418.109375 259.832031 420.710938 259.808594 422.90625 259.476562 C 424.039062 259.324219 425.1875 259.242188 426.308594 259.03125 L 429.675781 258.367188 C 434.121094 257.347656 438.472656 256.03125 442.695312 254.417969 C 446.902344 252.777344 451.011719 250.925781 454.925781 248.710938 C 456.902344 247.644531 458.792969 246.429688 460.65625 245.1875 C 461.578125 244.539062 462.5 243.898438 463.402344 243.230469 C 464.320312 242.59375 465.128906 241.730469 465.328125 240.078125 C 463.710938 239.683594 462.6875 240.03125 461.730469 240.554688 C 460.777344 241.058594 459.792969 241.527344 458.820312 242.003906 C 456.863281 242.941406 454.902344 243.84375 452.925781 244.726562 C 448.96875 246.453125 444.988281 248.078125 440.914062 249.421875 C 436.835938 250.738281 432.6875 251.773438 428.515625 252.53125 C 426.421875 252.84375 424.339844 253.210938 422.242188 253.398438 C 420.078125 253.710938 418.257812 253.742188 416.253906 253.636719 C 408.335938 253.066406 400.496094 249.1875 393.617188 244.183594 C 390.175781 241.636719 386.996094 238.707031 383.945312 235.652344 Z M 168.503906 435.832031 C 169.128906 436.804688 169.738281 437.800781 170.402344 438.742188 C 171.699219 440.648438 172.984375 442.574219 174.132812 444.589844 C 176.363281 448.648438 178.300781 452.851562 180.203125 457.035156 C 182.027344 461.25 184.175781 465.328125 185.894531 469.613281 C 186.835938 471.726562 187.542969 473.914062 188.441406 476.0625 L 189.75 479.296875 L 190.441406 480.921875 C 190.640625 481.472656 191.050781 481.964844 192.410156 482.253906 C 193.46875 481.40625 193.589844 480.757812 193.496094 480.164062 L 193.304688 478.363281 C 193.148438 477.171875 193.023438 475.960938 192.742188 474.792969 C 192.242188 472.441406 191.632812 470.109375 190.890625 467.816406 C 189.511719 463.207031 187.871094 458.640625 185.59375 454.382812 C 183.394531 450.089844 180.628906 446.109375 177.800781 442.230469 C 176.414062 440.269531 175.011719 438.324219 173.550781 436.421875 C 172.792969 435.488281 172.007812 434.578125 171.148438 433.726562 C 170.722656 433.296875 170.277344 432.882812 169.824219 432.476562 C 169.386719 432.0625 168.765625 431.78125 167.554688 432.074219 C 167.136719 433.25 167.285156 433.851562 167.601562 434.347656 Z M 189.765625 529.300781 C 191.375 529.863281 193.019531 530.359375 194.65625 530.859375 L 197.125 531.578125 C 197.941406 531.847656 198.832031 531.910156 200.089844 531.074219 C 199.765625 529.605469 199.074219 529.03125 198.308594 528.652344 L 196.035156 527.453125 C 194.511719 526.671875 192.988281 525.886719 191.4375 525.171875 C 188.359375 523.679688 185.222656 522.324219 182.109375 520.929688 C 175.855469 518.183594 169.65625 515.3125 163.261719 512.921875 C 156.898438 510.460938 150.414062 508.285156 143.972656 506 C 140.769531 504.824219 137.589844 503.585938 134.398438 502.363281 C 132.808594 501.761719 131.191406 501.214844 129.558594 500.6875 L 127.097656 499.949219 C 126.273438 499.703125 125.378906 499.640625 124.179688 500.335938 C 124.554688 501.671875 125.246094 502.25 126.003906 502.644531 L 128.289062 503.824219 C 129.824219 504.582031 131.367188 505.316406 132.933594 505.996094 C 136.074219 507.335938 139.214844 508.65625 142.339844 510.046875 C 148.550781 512.882812 154.722656 515.824219 161.011719 518.492188 C 167.265625 521.226562 173.710938 523.476562 180.113281 525.855469 C 183.324219 527.023438 186.515625 528.234375 189.765625 529.300781 Z M 619.3125 478.707031 L 621.378906 476.554688 C 622.773438 475.125 624.113281 473.660156 625.324219 472.082031 C 626.570312 470.535156 627.851562 469.011719 629.054688 467.421875 L 632.507812 462.5625 C 637.054688 456.042969 641.386719 449.332031 644.867188 442.179688 C 648.441406 435.078125 651.453125 427.714844 654.179688 420.28125 C 655.5625 416.570312 656.976562 412.875 658.234375 409.117188 C 658.84375 407.226562 659.453125 405.347656 659.929688 403.421875 C 660.179688 402.460938 660.390625 401.488281 660.613281 400.523438 C 660.835938 399.554688 660.855469 398.507812 660.074219 397.265625 C 658.75 397.914062 658.210938 398.746094 657.839844 399.65625 L 656.71875 402.359375 L 654.574219 407.800781 L 652.441406 413.242188 L 650.148438 418.613281 C 646.917969 425.714844 643.226562 432.578125 639.542969 439.402344 C 635.828125 446.214844 632.183594 453.058594 628.082031 459.644531 L 624.992188 464.574219 C 623.875 466.164062 622.828125 467.800781 621.757812 469.417969 L 620.164062 471.863281 L 618.507812 474.265625 L 616.878906 476.699219 C 616.308594 477.496094 615.914062 478.425781 616.246094 479.992188 C 617.808594 480.039062 618.640625 479.4375 619.3125 478.707031 Z M 690.085938 501.84375 L 687.207031 501.957031 C 685.308594 502.117188 683.421875 502.371094 681.535156 502.644531 C 679.640625 502.890625 677.796875 503.304688 675.941406 503.691406 C 674.078125 504.070312 672.234375 504.515625 670.410156 504.996094 C 663.070312 506.84375 655.816406 508.96875 648.8125 511.742188 C 641.78125 514.4375 634.953125 517.613281 628.171875 520.816406 L 617.945312 525.503906 C 616.246094 526.300781 614.582031 527.179688 612.929688 528.070312 L 610.476562 529.460938 C 609.660156 529.9375 608.929688 530.585938 608.558594 531.976562 C 609.875 532.5625 610.835938 532.421875 611.710938 532.097656 L 614.339844 531.144531 C 616.089844 530.484375 617.820312 529.792969 619.539062 529.078125 C 622.960938 527.625 626.398438 526.175781 629.871094 524.839844 C 636.835938 522.203125 643.890625 519.828125 650.886719 517.386719 C 657.902344 514.996094 664.800781 512.285156 671.855469 510.109375 C 673.609375 509.527344 675.371094 508.980469 677.144531 508.511719 C 678.925781 508.066406 680.675781 507.40625 682.457031 507.003906 C 684.242188 506.585938 686.011719 506.046875 687.792969 505.585938 L 690.476562 504.972656 C 691.378906 504.796875 692.242188 504.410156 693.058594 503.046875 C 692.019531 501.929688 691.035156 501.78125 690.085938 501.84375 Z M 651.777344 689.382812 C 651.550781 688.15625 651.417969 686.886719 650.96875 685.714844 C 650.203125 683.324219 649.351562 680.945312 648.109375 678.734375 C 647.054688 676.417969 645.601562 674.328125 644.195312 672.195312 C 642.617188 670.214844 640.972656 668.226562 639.003906 666.605469 C 635.21875 663.199219 630.785156 660.636719 626.222656 658.652344 C 623.9375 657.660156 621.65625 656.683594 619.292969 655.925781 C 618.109375 655.546875 616.902344 655.253906 615.675781 655.046875 C 615.066406 654.925781 614.433594 654.875 613.8125 654.800781 C 613.199219 654.734375 612.503906 654.875 611.726562 655.847656 C 612.121094 657.035156 612.597656 657.417969 613.140625 657.636719 C 613.6875 657.855469 614.226562 658.058594 614.757812 658.300781 L 617.980469 659.613281 C 619.054688 660.027344 620.109375 660.511719 621.171875 660.957031 L 624.238281 662.535156 C 628.214844 664.894531 631.726562 667.863281 634.910156 671.003906 C 638.058594 674.179688 641.148438 677.464844 643.496094 681.347656 C 644.8125 683.207031 645.6875 685.300781 646.785156 687.328125 C 647.382812 688.316406 647.769531 689.410156 648.261719 690.464844 L 649.007812 692.054688 C 649.226562 692.601562 649.65625 693.078125 651.039062 693.367188 C 652.070312 692.507812 652.164062 691.835938 652.046875 691.226562 Z M 508.039062 532.046875 C 506.558594 530.382812 505.003906 528.710938 503.398438 527.046875 C 501.648438 525.359375 499.695312 523.824219 497.488281 522.675781 C 495.273438 521.546875 492.882812 520.8125 490.550781 520.378906 C 488.21875 519.941406 485.945312 519.769531 483.8125 519.488281 C 481.679688 519.207031 479.691406 518.78125 477.917969 517.96875 C 476.113281 517.179688 474.777344 515.957031 472.621094 514.46875 C 468.59375 511.878906 464.253906 510.25 459.859375 509.039062 C 457.667969 508.433594 455.460938 507.894531 453.238281 507.457031 C 451.027344 507.019531 448.730469 506.835938 446.347656 507.570312 C 448.375 508.992188 450.449219 509.714844 452.582031 510.285156 C 454.707031 510.84375 456.800781 511.503906 458.871094 512.210938 C 462.96875 513.6875 467.015625 515.359375 470.449219 517.699219 L 473.035156 519.675781 C 474.003906 520.460938 475.128906 521.074219 476.25 521.621094 C 478.53125 522.695312 480.957031 523.214844 483.234375 523.539062 C 487.804688 524.15625 491.945312 524.589844 495.429688 526.527344 C 497.152344 527.503906 498.691406 528.804688 500.101562 530.257812 C 501.535156 531.859375 502.964844 533.507812 504.390625 535.234375 L 512.886719 545.535156 L 529.820312 566.246094 C 541.148438 580.027344 552.730469 593.609375 564.292969 607.203125 C 570.074219 614.003906 575.816406 620.832031 581.679688 627.566406 C 584.570312 630.964844 587.558594 634.28125 590.519531 637.625 L 594.960938 642.636719 C 596.414062 644.324219 598.050781 645.875 600.425781 646.804688 C 599.96875 644.292969 598.765625 642.394531 597.386719 640.636719 L 593.308594 635.316406 C 590.589844 631.78125 587.898438 628.21875 585.109375 624.730469 C 579.605469 617.703125 573.980469 610.773438 568.378906 603.820312 C 557.183594 589.914062 545.972656 576.019531 534.429688 562.394531 L 516.949219 542.097656 Z M 565.527344 756.832031 C 555.28125 745.566406 546.328125 733.125 538.304688 720.121094 C 530.273438 707.117188 523.074219 693.585938 516.566406 679.730469 C 510.09375 665.886719 504.152344 651.664062 499.179688 637.3125 C 498.804688 636.246094 497.8125 635.449219 496.613281 635.394531 C 476.542969 634.425781 456.425781 633.214844 436.480469 631.378906 C 433.984375 631.152344 431.507812 630.875 429.03125 630.601562 C 426.671875 630.320312 424.398438 629.855469 422.121094 629.203125 C 417.574219 627.902344 413.1875 625.859375 409.011719 623.4375 C 404.828125 620.992188 400.867188 618.117188 397.105469 614.992188 C 393.367188 611.886719 389.710938 608.4375 386.570312 604.902344 L 386.519531 604.84375 C 386.382812 604.6875 386.226562 604.550781 386.050781 604.417969 C 385.898438 604.3125 385.742188 604.230469 385.585938 604.152344 C 385.191406 603.453125 384.847656 603.246094 384.515625 603.214844 L 383.359375 603.09375 C 382.597656 603.050781 381.832031 603.03125 381.074219 603.070312 C 379.5625 603.144531 378.050781 603.3125 376.53125 603.324219 C 373.484375 603.351562 370.433594 603.261719 367.410156 603.46875 C 364.375 603.601562 361.398438 604.25 358.40625 604.78125 C 356.914062 605.0625 355.414062 605.289062 353.9375 605.671875 C 353.191406 605.847656 352.457031 606.078125 351.714844 606.3125 L 350.613281 606.695312 C 350.242188 606.789062 349.898438 607.101562 349.652344 608.382812 C 350.160156 609.574219 350.5625 609.8125 350.945312 609.824219 L 352.105469 609.96875 C 352.875 610.042969 353.640625 610.105469 354.40625 610.125 C 355.9375 610.1875 357.449219 610.09375 358.972656 610.058594 C 362.003906 609.949219 365.054688 609.957031 368.042969 609.449219 C 371.039062 609.015625 374.011719 608.28125 376.992188 607.667969 C 378.105469 607.441406 379.222656 607.289062 380.339844 607.132812 C 377.417969 610.773438 374 614.019531 370.085938 616.644531 C 365.480469 619.78125 360.304688 622.125 354.90625 623.824219 C 349.496094 625.511719 343.859375 626.574219 338.15625 627.082031 C 332.488281 627.589844 326.597656 627.652344 321.082031 627.074219 L 320.988281 627.0625 C 319.726562 626.929688 318.53125 627.753906 318.230469 629.027344 C 314.367188 645.378906 309.59375 661.527344 303.511719 677.171875 C 297.460938 692.820312 289.761719 707.8125 280.484375 721.726562 C 271.042969 735.484375 259.824219 748.167969 246.28125 757.902344 C 239.578125 762.820312 232.28125 766.929688 224.605469 770.128906 C 220.75 771.683594 216.792969 772.957031 212.789062 774.050781 C 208.773438 775.160156 204.75 776.183594 200.542969 777 C 204.792969 777.757812 209.164062 777.394531 213.382812 776.628906 C 217.601562 775.8125 221.710938 774.484375 225.734375 772.996094 C 233.742188 769.878906 241.371094 765.8125 248.414062 760.890625 C 255.417969 755.921875 261.914062 750.25 267.792969 744.027344 C 273.679688 737.796875 278.972656 731.050781 283.875 724.042969 C 293.46875 709.890625 301.3125 694.628906 307.671875 678.828125 C 313.777344 663.714844 318.65625 648.144531 322.679688 632.386719 C 328.058594 632.871094 333.296875 632.851562 338.613281 632.4375 C 344.648438 631.957031 350.675781 630.890625 356.539062 629.121094 C 362.386719 627.34375 368.09375 624.835938 373.265625 621.378906 C 377.46875 618.625 381.246094 615.199219 384.496094 611.324219 C 390.867188 618.085938 397.945312 623.886719 405.957031 628.648438 C 410.484375 631.277344 415.292969 633.542969 420.441406 635.023438 C 423 635.761719 425.671875 636.308594 428.324219 636.628906 C 430.847656 636.910156 433.375 637.195312 435.898438 637.425781 C 445.992188 638.417969 456.066406 639.011719 466.144531 639.609375 C 475.597656 640.136719 485.046875 640.585938 494.515625 640.957031 C 499.605469 654.996094 505.441406 668.578125 511.851562 681.976562 C 518.574219 695.921875 525.925781 709.582031 534.277344 722.65625 C 542.648438 735.695312 551.878906 748.28125 562.710938 759.484375 C 568.109375 765.085938 573.90625 770.335938 580.148438 775.015625 C 586.363281 779.675781 593.164062 783.90625 600.878906 785.585938 C 594.507812 781.050781 588.132812 777.125 582.136719 772.417969 C 576.179688 767.714844 570.664062 762.445312 565.527344 756.832031 Z M 232.367188 608.910156 L 264.0625 575.105469 C 274.679688 563.949219 285.078125 552.363281 296.234375 542.132812 L 296.335938 542.039062 L 296.429688 541.945312 C 299.769531 538.5625 303.789062 535.351562 307.859375 532.511719 C 311.972656 529.667969 316.253906 527.058594 320.742188 524.820312 C 325.238281 522.605469 329.859375 520.628906 334.644531 519.074219 C 337.039062 518.320312 339.453125 517.613281 341.910156 517.066406 C 344.367188 516.496094 346.792969 515.875 349.203125 514.351562 C 346.519531 513.441406 343.859375 513.515625 341.300781 513.988281 C 338.726562 514.402344 336.171875 514.976562 333.632812 515.613281 C 328.582031 516.933594 323.601562 518.621094 318.835938 520.816406 C 314.078125 523 309.4375 525.492188 305.082031 528.421875 C 300.691406 531.363281 296.574219 534.460938 292.621094 538.289062 L 292.816406 538.105469 C 289.871094 540.726562 286.878906 543.332031 284.132812 546.058594 C 281.300781 548.746094 278.539062 551.480469 275.820312 554.242188 C 270.320312 559.730469 264.929688 565.28125 259.648438 570.953125 C 248.996094 582.191406 238.738281 593.785156 228.425781 605.316406 L 197.78125 640.179688 C 192.640625 645.949219 187.53125 651.757812 182.472656 657.605469 L 174.984375 666.46875 C 172.535156 669.46875 169.761719 672.183594 168.457031 676.1875 C 172.277344 674.40625 174.632812 671.332031 177.316406 668.546875 L 185.238281 660.078125 L 200.832031 642.90625 C 211.21875 631.464844 221.785156 620.179688 232.367188 608.910156 Z M 502.152344 596.386719 L 501.90625 595.949219 C 501.863281 595.804688 501.566406 595.640625 500.34375 595.496094 C 499.117188 595.617188 498.808594 595.71875 498.757812 595.835938 L 498.484375 596.1875 C 498.308594 596.425781 498.152344 596.65625 498.027344 596.890625 C 497.769531 597.355469 497.644531 597.816406 497.457031 598.269531 C 497.105469 599.179688 496.589844 599.988281 496.519531 600.855469 C 496.359375 601.703125 496.464844 602.648438 496.265625 603.453125 C 496.175781 603.867188 495.929688 604.160156 495.738281 604.457031 C 495.628906 604.585938 495.585938 604.820312 495.503906 605 L 495.410156 605.339844 C 495.367188 605.457031 495.449219 605.761719 495.824219 606.792969 C 496.425781 607.699219 496.734375 607.855469 496.914062 607.828125 C 497.097656 607.8125 497.292969 607.785156 497.488281 607.75 C 497.863281 607.660156 498.15625 607.480469 498.457031 607.273438 C 499.027344 606.84375 499.449219 606.292969 499.925781 605.824219 C 500.890625 604.855469 501.789062 603.816406 502.257812 602.640625 C 502.816406 601.488281 502.746094 600.222656 502.703125 599.042969 C 502.664062 598.445312 502.660156 597.863281 502.488281 597.273438 C 502.421875 596.976562 502.289062 596.675781 502.152344 596.386719 Z M 503.679688 576.554688 L 504.089844 576.121094 C 504.339844 575.820312 504.550781 575.492188 504.679688 575.140625 C 504.980469 574.453125 505.136719 573.730469 505.40625 573.027344 C 505.9375 571.621094 506.527344 570.140625 506.617188 568.625 C 506.804688 567.105469 506.359375 565.621094 505.917969 564.203125 C 505.679688 563.492188 505.480469 562.785156 505.097656 562.121094 C 504.917969 561.785156 504.691406 561.472656 504.441406 561.160156 L 504.039062 560.707031 C 503.945312 560.550781 503.585938 560.445312 502.378906 560.6875 C 501.273438 561.246094 501.027344 561.460938 501.023438 561.628906 L 500.898438 562.144531 C 500.835938 562.476562 500.765625 562.816406 500.734375 563.136719 C 500.660156 563.78125 500.703125 564.394531 500.679688 565.015625 C 500.652344 566.253906 500.414062 567.457031 500.601562 568.625 C 500.714844 569.804688 501.054688 571.015625 501.109375 572.25 C 501.160156 572.871094 501.011719 573.460938 500.921875 574.054688 C 500.890625 574.363281 500.890625 574.675781 500.898438 575.003906 L 500.964844 575.519531 C 500.984375 575.695312 501.203125 575.9375 502.152344 576.507812 C 503.210938 576.765625 503.550781 576.691406 503.679688 576.554688 Z M 296.378906 610.1875 C 295.820312 609.855469 295.230469 609.5625 294.621094 609.292969 L 293.695312 608.914062 C 293.382812 608.785156 292.953125 608.828125 292.039062 609.511719 C 291.65625 610.589844 291.761719 611.011719 291.988281 611.273438 L 292.671875 612.050781 C 293.144531 612.535156 293.636719 613.003906 294.164062 613.414062 C 295.222656 614.246094 296.339844 614.980469 297.386719 615.835938 C 299.46875 617.539062 301.570312 619.289062 303.894531 620.714844 C 306.179688 622.21875 308.792969 623.167969 311.445312 624.039062 C 312.761719 624.476562 314.132812 624.875 315.546875 625.09375 C 316.265625 625.179688 316.992188 625.226562 317.714844 625.242188 L 318.84375 625.15625 C 319.207031 625.15625 319.613281 624.9375 320.054688 623.75 C 319.839844 622.464844 319.601562 622.144531 319.308594 622.039062 L 318.480469 621.648438 C 317.921875 621.34375 317.371094 621.039062 316.816406 620.796875 C 315.722656 620.207031 314.585938 619.753906 313.476562 619.132812 C 311.25 617.980469 309.136719 616.550781 306.816406 615.464844 C 304.527344 614.316406 302.097656 613.335938 299.757812 612.164062 C 298.585938 611.582031 297.5 610.851562 296.378906 610.1875 Z M 311.101562 578.101562 C 310.96875 576.878906 310.554688 575.582031 310.390625 574.25 C 310.304688 573.578125 310.378906 572.921875 310.378906 572.257812 C 310.386719 571.921875 310.328125 571.585938 310.257812 571.234375 L 310.101562 570.707031 C 310.054688 570.53125 309.789062 570.324219 308.761719 569.953125 C 307.664062 569.921875 307.34375 570.0625 307.230469 570.222656 L 306.917969 570.71875 C 306.734375 571.050781 306.589844 571.398438 306.496094 571.75 C 306.320312 572.449219 306.253906 573.171875 306.046875 573.882812 C 305.652344 575.304688 305.148438 576.773438 305.09375 578.316406 C 304.957031 579.867188 305.46875 581.453125 306.121094 583.027344 C 306.449219 583.804688 306.875 584.640625 307.488281 585.339844 C 307.847656 585.699219 308.246094 586.011719 308.636719 586.28125 L 309.355469 586.597656 C 309.558594 586.722656 309.957031 586.664062 310.792969 585.773438 C 311.375 584.65625 311.515625 584.371094 311.464844 584.257812 L 311.417969 583.875 C 311.414062 583.578125 311.417969 583.320312 311.375 583.113281 C 311.371094 582.585938 311.238281 582.148438 311.226562 581.585938 C 311.15625 580.492188 311.332031 579.3125 311.101562 578.101562 Z M 310.117188 535.597656 C 309.074219 535.246094 308.730469 535.289062 308.574219 535.421875 L 308.132812 535.808594 C 307.871094 536.085938 307.625 536.375 307.449219 536.695312 C 307.09375 537.328125 306.84375 538.011719 306.464844 538.652344 C 305.726562 539.9375 304.886719 541.28125 304.527344 542.828125 C 304.097656 544.359375 304.265625 546.046875 304.710938 547.730469 C 304.785156 548.136719 304.960938 548.5625 305.105469 548.972656 C 305.242188 549.386719 305.425781 549.785156 305.714844 550.164062 C 305.984375 550.53125 306.226562 550.898438 306.605469 551.191406 L 307.164062 551.605469 C 307.3125 551.757812 307.6875 551.78125 308.761719 551.191406 C 309.652344 550.3125 309.847656 550.050781 309.820312 549.910156 L 309.847656 549.453125 C 309.828125 549.183594 309.925781 548.859375 309.914062 548.613281 C 309.933594 548.097656 309.925781 547.589844 309.972656 547.078125 C 310.039062 546.042969 310.464844 544.976562 310.460938 543.820312 C 310.542969 542.671875 310.429688 541.367188 310.585938 540.082031 C 310.65625 539.429688 310.894531 538.839844 311.054688 538.214844 C 311.144531 537.90625 311.1875 537.574219 311.199219 537.226562 L 311.195312 536.6875 C 311.195312 536.511719 311 536.25 310.117188 535.597656 Z M 440.863281 609.769531 C 433.050781 609.375 425.261719 608.546875 417.539062 607.339844 C 418.027344 607.589844 418.515625 607.84375 419.003906 608.09375 C 420.90625 609.109375 422.824219 610.089844 424.824219 610.640625 C 426.835938 611.234375 428.738281 611.34375 430.90625 611.136719 C 433.050781 610.972656 435.25 610.621094 437.4375 610.328125 C 438.582031 610.152344 439.722656 609.957031 440.863281 609.769531 Z M 403.800781 559.8125 C 396.351562 560.988281 388.878906 561.980469 381.378906 562.433594 L 390.488281 564.0625 C 399.554688 565.550781 408.648438 566.917969 417.675781 568.585938 C 426.722656 570.179688 435.671875 572.28125 444.644531 574.257812 C 449.125 575.261719 453.617188 576.226562 458.074219 577.34375 C 460.3125 577.863281 462.539062 578.460938 464.757812 579.054688 L 465.992188 579.394531 C 467.589844 579.464844 469.183594 579.53125 470.777344 579.609375 C 471.6875 579.644531 472.394531 580.410156 472.355469 581.320312 C 472.324219 582.203125 471.589844 582.894531 470.714844 582.90625 C 470.394531 582.90625 470.074219 582.902344 469.761719 582.902344 C 468.957031 583.164062 468.207031 583.175781 467.480469 583.070312 L 465.953125 582.890625 C 449.488281 582.863281 433.039062 582.53125 416.558594 582.015625 C 407.519531 581.679688 398.496094 581.382812 389.375 580.472656 C 384.921875 580.015625 380.453125 579.558594 376.136719 579.453125 C 374.007812 579.414062 371.835938 579.457031 370.136719 579.839844 C 369.304688 580.015625 368.625 580.296875 368.363281 580.542969 C 368.09375 580.769531 367.957031 580.988281 367.8125 581.664062 C 367.679688 582.304688 367.691406 583.253906 367.773438 584.21875 L 367.800781 584.480469 C 367.800781 584.480469 367.800781 584.488281 367.835938 584.550781 C 367.941406 584.714844 368.125 584.976562 368.417969 585.261719 C 369.566406 586.40625 371.429688 587.550781 373.265625 588.535156 C 377.023438 590.503906 381.121094 592.160156 385.265625 593.660156 C 393.585938 596.632812 402.226562 598.933594 410.941406 600.792969 C 428.367188 604.460938 446.292969 606.652344 464.035156 605.433594 L 464.066406 605.425781 C 465.195312 605.351562 466.175781 606.207031 466.257812 607.335938 C 466.324219 608.371094 465.605469 609.285156 464.613281 609.480469 C 455.765625 611.25 446.933594 612.875 437.933594 614.007812 C 435.683594 614.292969 433.421875 614.5 431.085938 614.574219 C 428.785156 614.710938 426.140625 614.441406 423.882812 613.621094 C 419.945312 612.191406 416.253906 610.089844 413.859375 606.730469 C 412.535156 606.507812 411.207031 606.292969 409.882812 606.046875 C 400.929688 604.316406 392.058594 602.140625 383.335938 599.21875 C 378.972656 597.738281 374.652344 596.097656 370.425781 593.859375 C 368.4375 592.769531 366.46875 591.660156 364.511719 589.863281 L 364.402344 589.902344 C 363.878906 590.070312 363.367188 590.226562 362.851562 590.335938 C 361.824219 590.574219 360.789062 590.660156 359.753906 590.804688 C 357.6875 591.054688 355.621094 591.421875 353.546875 591.269531 C 351.472656 591.207031 349.398438 590.792969 347.320312 590.5625 C 346.28125 590.429688 345.246094 590.453125 344.207031 590.390625 C 343.691406 590.359375 343.171875 590.273438 342.648438 590.152344 L 341.867188 589.925781 C 341.609375 589.859375 341.347656 589.570312 341.0625 588.492188 C 341.308594 587.398438 341.558594 587.105469 341.816406 587.023438 L 342.585938 586.773438 C 343.101562 586.632812 343.621094 586.527344 344.136719 586.476562 C 345.171875 586.371094 346.207031 586.363281 347.238281 586.195312 C 349.300781 585.882812 351.367188 585.390625 353.433594 585.261719 C 355.503906 585.027344 357.585938 585.316406 359.65625 585.5 C 360.402344 585.566406 361.140625 585.636719 361.886719 585.730469 C 361.847656 585.566406 361.804688 585.402344 361.785156 585.242188 L 361.734375 584.734375 C 361.640625 583.460938 361.558594 582.128906 361.847656 580.550781 C 362.09375 579.023438 362.972656 577.054688 364.480469 575.871094 C 365.957031 574.652344 367.496094 574.214844 368.847656 573.894531 C 371.566406 573.355469 373.949219 573.417969 376.3125 573.484375 C 381.015625 573.6875 385.519531 574.230469 390.027344 574.773438 C 398.835938 575.769531 407.832031 576.425781 416.796875 576.984375 C 422.886719 577.367188 428.988281 577.695312 435.089844 577.996094 C 428.875 576.921875 422.671875 575.824219 416.515625 574.484375 C 407.53125 572.59375 398.597656 570.417969 389.644531 568.347656 L 376.175781 565.449219 C 373.929688 564.953125 371.691406 564.453125 369.464844 563.871094 L 366.167969 562.980469 C 362.5625 563.023438 358.957031 563.027344 355.367188 563.023438 L 343.246094 563.148438 C 341.226562 563.136719 339.207031 563.109375 337.1875 563.003906 L 334.160156 562.804688 C 333.152344 562.726562 332.136719 562.457031 331.125 561.367188 C 332.128906 560.269531 333.132812 559.980469 334.136719 559.890625 L 337.144531 559.621094 C 339.152344 559.445312 341.15625 559.359375 343.164062 559.253906 C 347.175781 559.078125 351.195312 558.933594 355.203125 558.664062 C 363.222656 558.078125 371.210938 557.238281 379.191406 556.554688 C 387.171875 555.816406 395.167969 555.394531 403.105469 554.554688 C 406.867188 554.203125 410.585938 553.664062 414.328125 553.210938 C 411.8125 552.597656 409.3125 551.902344 406.828125 551.117188 C 405.761719 550.765625 404.691406 550.46875 403.636719 550.074219 L 400.503906 548.789062 C 398.378906 548.042969 396.421875 546.757812 394.414062 545.695312 C 393.457031 545.039062 392.503906 544.359375 391.574219 543.664062 C 390.652344 542.960938 389.824219 542.058594 388.980469 541.253906 C 388.578125 540.824219 388.226562 540.300781 387.855469 539.832031 C 387.480469 539.367188 387.136719 538.867188 386.859375 538.292969 C 386.21875 537.308594 385.855469 535.765625 386.929688 534.46875 C 387.664062 534.917969 388.082031 535.207031 388.527344 535.535156 C 388.890625 535.867188 389.222656 536.207031 389.503906 536.582031 C 389.761719 536.964844 390.09375 537.308594 390.472656 537.636719 C 390.835938 537.960938 391.140625 538.3125 391.535156 538.613281 C 392.378906 539.171875 393.09375 539.824219 393.976562 540.320312 C 394.878906 540.796875 395.738281 541.324219 396.617188 541.820312 C 398.527344 542.621094 400.328125 543.550781 402.339844 544.179688 L 405.285156 545.214844 C 406.285156 545.527344 407.324219 545.753906 408.339844 546.027344 C 416.484375 548.191406 424.980469 549.214844 433.476562 550.214844 L 439.867188 550.964844 L 446.292969 551.53125 L 452.738281 552.101562 L 459.203125 552.433594 C 463.515625 552.589844 467.835938 552.765625 472.164062 552.695312 C 474.324219 552.703125 476.488281 552.714844 478.652344 552.808594 L 481.90625 552.972656 C 482.992188 553.03125 484.082031 553.285156 485.203125 554.359375 C 484.164062 555.476562 483.085938 555.777344 481.992188 555.882812 L 478.738281 556.191406 C 476.5625 556.378906 474.386719 556.484375 472.210938 556.585938 C 467.859375 556.835938 463.492188 556.710938 459.128906 556.800781 L 452.574219 556.945312 L 446.011719 556.84375 L 439.433594 556.699219 L 432.863281 556.191406 C 429.847656 555.964844 426.835938 555.609375 423.839844 555.132812 L 421.71875 555.890625 C 419.757812 556.453125 417.789062 557.019531 415.800781 557.507812 C 411.828125 558.441406 407.8125 559.195312 403.800781 559.8125 Z M 359.253906 485.082031 C 359.253906 487.140625 361.679688 488.808594 364.675781 488.808594 C 367.667969 488.808594 370.09375 487.140625 370.09375 485.082031 C 370.09375 483.019531 367.667969 481.347656 364.675781 481.347656 C 361.679688 481.347656 359.253906 483.019531 359.253906 485.082031 Z M 438.84375 487.585938 C 439.332031 483.921875 436.152344 482.175781 435.070312 481.695312 C 429.386719 481.386719 376.597656 478.519531 364.625 477.878906 C 361.195312 477.691406 358.613281 478.371094 357.152344 479.820312 C 355.566406 481.394531 355.597656 483.519531 355.597656 483.542969 C 355.679688 485.207031 354.394531 486.617188 352.730469 486.699219 C 350.984375 486.738281 349.652344 485.488281 349.578125 483.828125 C 349.554688 483.34375 349.453125 478.976562 352.902344 475.546875 C 355.640625 472.816406 359.699219 471.589844 364.945312 471.859375 C 377.597656 472.535156 435.890625 475.703125 435.890625 475.703125 C 436.179688 475.714844 436.460938 475.777344 436.738281 475.871094 C 439.953125 477.015625 445.785156 481.097656 444.820312 488.375 C 444.613281 489.894531 443.320312 490.996094 441.835938 490.996094 C 441.703125 490.996094 441.566406 490.984375 441.433594 490.964844 C 439.777344 490.746094 438.625 489.234375 438.84375 487.585938 " fill-opacity="1" fill-rule="nonzero"/><path fill="rgb(100%, 100%, 100%)" d="M 360.605469 448.121094 C 359.589844 447.5625 358.527344 447.414062 357.523438 447.261719 C 356.757812 447.191406 355.980469 447.128906 355.242188 447.03125 C 353.753906 446.828125 352.320312 446.535156 351.171875 446 C 350.015625 445.46875 349.234375 444.753906 348.75 443.710938 C 348.269531 442.671875 348.113281 441.285156 348.148438 439.847656 C 348.15625 438.40625 348.398438 436.929688 348.65625 435.382812 C 349.191406 432.125 349.753906 428.460938 348.105469 424.742188 C 347.269531 422.929688 345.871094 421.480469 344.488281 420.40625 C 343.09375 419.328125 341.683594 418.476562 340.304688 417.648438 L 338.253906 416.40625 C 337.652344 415.972656 337.039062 415.632812 336.511719 415.132812 C 335.410156 414.222656 334.480469 413.097656 333.726562 411.839844 C 332.25 409.28125 331.433594 406.460938 330.066406 403.3125 C 327.558594 409.976562 332.738281 417.476562 338.429688 420.5625 C 341.070312 422.382812 343.734375 424.035156 344.632812 426.308594 C 345.597656 428.585938 345.285156 431.671875 344.761719 434.671875 C 344.488281 436.289062 344.199219 438.003906 344.179688 439.777344 C 344.140625 441.542969 344.273438 443.449219 345.121094 445.359375 C 345.953125 447.285156 347.714844 448.847656 349.484375 449.625 C 351.257812 450.441406 353.019531 450.769531 354.714844 451.007812 C 355.558594 451.125 356.394531 451.195312 357.226562 451.265625 C 357.8125 451.378906 358.355469 451.425781 358.757812 451.671875 C 359.585938 452.066406 360.179688 452.890625 360.558594 454.144531 C 360.945312 455.371094 361.070312 456.847656 361.128906 458.351562 C 361.179688 459.890625 360.800781 461.320312 361.78125 463.226562 C 363.617188 462.035156 363.804688 460.285156 364.148438 458.617188 C 364.476562 456.921875 364.589844 455.140625 364.226562 453.234375 C 363.886719 451.390625 362.703125 449.175781 360.605469 448.121094 Z M 484.632812 408.621094 C 482.910156 408.671875 481.148438 408.945312 479.367188 409.71875 C 477.636719 410.453125 475.734375 412.089844 475.164062 414.367188 C 474.839844 415.476562 474.925781 416.554688 474.996094 417.558594 C 475.097656 418.332031 475.210938 419.097656 475.265625 419.84375 C 475.398438 421.335938 475.417969 422.804688 475.152344 424.039062 C 474.878906 425.289062 474.355469 426.203125 473.449219 426.898438 C 472.53125 427.601562 471.214844 428.054688 469.804688 428.332031 C 468.394531 428.636719 466.90625 428.71875 465.335938 428.808594 C 462.042969 429 458.347656 429.246094 455.082031 431.660156 C 453.492188 432.871094 452.378906 434.554688 451.640625 436.132812 C 450.882812 437.738281 450.363281 439.296875 449.855469 440.824219 L 449.089844 443.089844 C 448.792969 443.78125 448.605469 444.453125 448.230469 445.074219 C 447.585938 446.351562 446.6875 447.507812 445.621094 448.511719 C 443.445312 450.511719 440.875 451.921875 438.105469 453.941406 C 445.144531 454.941406 451.332031 448.246094 453.113281 442.019531 C 454.3125 439.042969 455.339844 436.082031 457.363281 434.710938 C 459.371094 433.28125 462.457031 432.902344 465.492188 432.765625 C 467.132812 432.675781 468.863281 432.589844 470.601562 432.21875 C 472.332031 431.875 474.164062 431.328125 475.84375 430.085938 C 477.542969 428.855469 478.683594 426.792969 479.054688 424.898438 C 479.464844 422.984375 479.398438 421.199219 479.257812 419.492188 C 479.191406 418.636719 479.085938 417.8125 478.964844 416.984375 C 478.953125 416.386719 478.882812 415.839844 479.027344 415.394531 C 479.242188 414.503906 479.90625 413.746094 481.054688 413.105469 C 482.164062 412.453125 483.578125 412.015625 485.035156 411.632812 C 486.519531 411.242188 488 411.300781 489.644531 409.933594 C 488.082031 408.402344 486.332031 408.589844 484.632812 408.621094 Z M 409.90625 415.042969 C 410.773438 416.777344 411.125 419.101562 410.535156 421.117188 C 409.96875 423.125 408.847656 424.679688 407.695312 426.007812 C 406.546875 427.371094 405.230469 428.5 403.984375 429.566406 C 401.664062 431.535156 399.457031 433.71875 398.746094 436.078125 C 397.976562 438.40625 398.972656 441.378906 399.84375 444.464844 C 402.253906 450.480469 401.445312 459.5625 395.253906 463.082031 C 396.214844 459.78125 397.386719 457.105469 397.886719 454.179688 C 398.113281 452.738281 398.113281 451.277344 397.84375 449.871094 C 397.769531 449.148438 397.507812 448.496094 397.316406 447.777344 L 396.539062 445.511719 C 396.007812 443.992188 395.46875 442.4375 395.085938 440.714844 C 394.703125 439.007812 394.554688 436.992188 395.074219 435.066406 C 396.183594 431.152344 398.953125 428.699219 401.445312 426.53125 C 402.628906 425.5 403.757812 424.523438 404.683594 423.417969 C 405.632812 422.339844 406.398438 421.171875 406.691406 420.0625 C 406.984375 418.953125 406.835938 417.90625 406.289062 416.757812 C 405.746094 415.613281 404.835938 414.46875 403.820312 413.363281 C 403.3125 412.8125 402.753906 412.273438 402.207031 411.726562 C 401.539062 410.96875 400.808594 410.171875 400.390625 409.089844 C 399.449219 406.941406 399.953125 404.480469 400.871094 402.84375 C 401.808594 401.148438 403.035156 399.851562 404.367188 398.753906 C 405.695312 397.6875 406.960938 396.46875 409.136719 396.726562 C 408.667969 398.816406 407.460938 399.675781 406.523438 400.890625 C 405.605469 402.085938 404.761719 403.296875 404.269531 404.492188 C 403.761719 405.699219 403.699219 406.707031 404.078125 407.542969 C 404.234375 407.988281 404.621094 408.375 405 408.835938 C 405.59375 409.421875 406.191406 410.007812 406.765625 410.640625 C 407.914062 411.90625 409.0625 413.28125 409.90625 415.042969 " fill-opacity="1" fill-rule="nonzero"/><path fill="rgb(19.219971%, 18.03894%, 37.249756%)" d="M 305.757812 281.65625 C 305.300781 281.699219 304.835938 281.761719 304.382812 281.832031 C 303.476562 281.984375 302.585938 282.171875 301.726562 282.460938 C 300.855469 282.710938 299.996094 283.011719 299.136719 283.300781 C 298.710938 283.464844 298.265625 283.558594 297.882812 283.839844 C 297.6875 283.976562 297.511719 284.179688 297.351562 284.398438 C 297.273438 284.53125 297.175781 284.597656 297.125 284.792969 C 297.074219 285.007812 297.085938 285.394531 297.1875 286.074219 C 297.511719 286.675781 297.730469 286.988281 297.902344 287.132812 C 298.066406 287.257812 298.175781 287.253906 298.320312 287.316406 C 298.585938 287.390625 298.84375 287.445312 299.082031 287.441406 C 299.558594 287.433594 299.972656 287.246094 300.402344 287.121094 C 301.269531 286.832031 302.132812 286.5625 302.988281 286.234375 C 303.84375 285.949219 304.671875 285.566406 305.488281 285.136719 C 305.894531 284.925781 306.296875 284.699219 306.691406 284.453125 C 307.101562 284.242188 307.511719 284.054688 307.519531 282.628906 C 306.660156 281.488281 306.214844 281.585938 305.757812 281.65625 Z M 280.03125 292.585938 C 279.1875 292.601562 278.359375 292.722656 277.523438 292.824219 L 275.058594 293.316406 C 273.421875 293.65625 271.773438 293.957031 270.136719 294.335938 L 265.277344 295.589844 C 258.847656 297.4375 252.476562 299.597656 246.386719 302.382812 C 240.273438 305.09375 234.292969 308.101562 228.492188 311.421875 C 225.601562 313.101562 222.726562 314.808594 219.992188 316.742188 C 218.628906 317.71875 217.289062 318.71875 216.015625 319.820312 C 214.757812 320.917969 213.300781 321.804688 212.835938 323.960938 C 215.03125 324.128906 216.265625 323.097656 217.742188 322.332031 C 219.1875 321.550781 220.613281 320.730469 222.035156 319.914062 L 230.488281 314.902344 C 236.167969 311.636719 242.019531 308.667969 247.992188 306.003906 C 253.960938 303.316406 260.0625 300.953125 266.277344 298.914062 L 270.953125 297.425781 C 272.519531 296.980469 274.113281 296.597656 275.695312 296.179688 C 278.859375 295.28125 282.070312 294.894531 285.140625 292.960938 C 283.410156 292.539062 281.71875 292.507812 280.03125 292.585938 Z M 360.238281 43.8125 C 359.691406 43.949219 359.265625 44.277344 358.769531 44.503906 C 357.84375 45.042969 356.925781 45.667969 356.175781 46.441406 C 354.632812 47.953125 353.414062 49.746094 352.460938 51.617188 C 350.523438 55.347656 349.351562 59.332031 348.621094 63.316406 C 347.867188 67.304688 347.609375 71.339844 347.609375 75.335938 C 347.640625 77.335938 347.730469 79.328125 347.875 81.320312 C 347.984375 83.300781 348.15625 85.320312 349.691406 87.152344 C 350.839844 85.074219 350.792969 83.175781 350.800781 81.238281 C 350.832031 79.296875 350.925781 77.367188 351.078125 75.445312 C 351.328125 71.601562 351.824219 67.792969 352.53125 64.066406 C 353.285156 60.359375 354.34375 56.722656 356.023438 53.480469 C 356.851562 51.847656 357.878906 50.386719 358.972656 48.992188 C 359.503906 48.277344 360.066406 47.59375 360.671875 46.917969 C 361.246094 46.171875 362.023438 45.859375 362.175781 44.09375 C 361.421875 43.71875 360.789062 43.699219 360.238281 43.8125 Z M 437.597656 14.199219 C 431.402344 14.273438 425.230469 14.96875 419.210938 16.3125 C 413.207031 17.691406 407.335938 19.535156 401.601562 21.714844 C 398.730469 22.804688 395.894531 23.984375 393.167969 25.390625 C 391.800781 26.089844 390.472656 26.863281 389.171875 27.699219 C 387.90625 28.5625 386.457031 29.164062 385.84375 31.179688 C 387.863281 31.707031 389.109375 30.921875 390.539062 30.421875 C 391.964844 29.925781 393.34375 29.355469 394.742188 28.828125 C 397.507812 27.699219 400.253906 26.523438 403.035156 25.464844 C 408.605469 23.324219 414.296875 21.523438 420.089844 20.175781 C 425.894531 18.921875 431.746094 17.988281 437.660156 17.671875 C 440.59375 17.691406 443.570312 17.515625 446.492188 17.925781 C 449.476562 18.082031 452.234375 18.882812 455.558594 18.261719 C 452.988281 16.300781 449.933594 15.316406 446.855469 15.019531 C 443.796875 14.410156 440.699219 14.398438 437.597656 14.199219 Z M 683.320312 543.4375 C 682.914062 541.828125 681.269531 540.855469 679.660156 541.269531 L 605.832031 560.160156 C 614.507812 511.265625 624.226562 451.144531 624.226562 427.101562 C 624.226562 385.761719 639.941406 357.671875 640.097656 357.394531 C 640.917969 355.945312 640.417969 354.109375 638.972656 353.289062 C 637.527344 352.460938 635.6875 352.960938 634.859375 354.410156 C 634.183594 355.597656 618.203125 384.074219 618.203125 427.101562 C 618.203125 469.042969 586.945312 628.792969 586.625 630.398438 C 586.304688 632.039062 587.371094 633.617188 589.003906 633.9375 C 589.195312 633.980469 589.398438 634 589.585938 634 C 590.996094 634 592.257812 633.003906 592.539062 631.566406 C 593.066406 628.871094 598.46875 601.269531 604.664062 566.679688 L 681.152344 547.109375 C 682.761719 546.695312 683.734375 545.050781 683.320312 543.4375 Z M 242.011719 760.605469 C 240.449219 760.035156 238.71875 760.84375 238.148438 762.40625 C 233 776.570312 213.898438 797.117188 213.703125 797.316406 C 212.566406 798.53125 212.628906 800.441406 213.847656 801.574219 C 214.429688 802.121094 215.167969 802.390625 215.902344 802.390625 C 216.710938 802.390625 217.507812 802.070312 218.105469 801.4375 C 218.925781 800.558594 238.242188 779.789062 243.8125 764.464844 C 244.382812 762.902344 243.574219 761.179688 242.011719 760.605469 Z M 217.535156 616.003906 C 216.96875 614.089844 210.183594 590.6875 203.300781 561.554688 L 138.476562 548.042969 C 136.84375 547.703125 135.796875 546.105469 136.144531 544.472656 C 136.480469 542.84375 138.082031 541.800781 139.703125 542.140625 L 201.796875 555.082031 C 195.300781 526.785156 189.125 494.382812 188.496094 471.261719 C 187.175781 423.003906 164.652344 378.742188 164.425781 378.304688 C 163.664062 376.824219 164.246094 375.003906 165.726562 374.246094 C 167.203125 373.484375 169.023438 374.0625 169.78125 375.542969 C 170.734375 377.394531 193.15625 421.480469 194.515625 471.097656 C 195.847656 519.644531 223.039062 613.375 223.3125 614.316406 C 223.785156 615.914062 222.863281 617.589844 221.269531 618.054688 C 220.988281 618.136719 220.699219 618.175781 220.425781 618.175781 C 219.121094 618.175781 217.914062 617.320312 217.535156 616.003906 " fill-opacity="1" fill-rule="nonzero"/></svg>